<svg width="300" height="70" viewBox="0 0 300 70" fill="none" xmlns="http://www.w3.org/2000/svg">
<path d="M0.0661485 62.1567L4.21697 44.7918C5.34149 40.0615 9.00171 37.6903 15.1976 37.6781H24.1111C24.519 37.6781 24.8553 37.8484 25.1199 38.1888C25.3955 38.5293 25.5333 38.9245 25.5333 39.3745V62.1567C25.5333 62.6309 25.379 63.0322 25.0703 63.3605C24.7616 63.6767 24.3923 63.8348 23.9623 63.8348H20.8533C20.4013 63.8348 20.0265 63.6767 19.7288 63.3605C19.4421 63.0322 19.2988 62.6187 19.2988 62.1202V57.5236H7.54093L6.43294 62.1202C6.32269 62.6187 6.07464 63.0322 5.68877 63.3605C5.30291 63.6767 4.89499 63.8348 4.46502 63.8348H1.20721C0.777245 63.8348 0.468552 63.701 0.281131 63.4335C0.0937104 63.1538 0 62.9106 0 62.7039C0.0110248 62.4971 0.0330743 62.3147 0.0661485 62.1567ZM8.76468 52.3616H19.2988V42.8401H14.5857C13.5274 42.8401 12.6013 43.1745 11.8075 43.8433C11.0248 44.5 10.4956 45.3877 10.2199 46.5064L8.76468 52.3616Z" fill="#112347"/>
<path d="M28.2785 62.6309L31.2552 49.3702C32.093 45.6856 34.8603 43.8433 39.5568 43.8433H47.3789C47.6655 43.8433 47.9025 43.9528 48.09 44.1717C48.2884 44.3784 48.3876 44.6459 48.3876 44.9742V62.7221C48.3876 63.0383 48.2884 63.3058 48.09 63.5247C47.9025 63.7314 47.6655 63.8348 47.3789 63.8348H43.6745C43.3879 63.8348 43.1454 63.7314 42.9469 63.5247C42.7595 63.3058 42.6658 63.0383 42.6658 62.7221V48.2575H39.5568C38.0133 48.2575 37.0377 49.1513 36.6297 50.9388L34.0334 62.485C33.9342 62.8863 33.7357 63.2146 33.4381 63.47C33.1514 63.7132 32.8427 63.8348 32.512 63.8348H29.1219C28.8242 63.8348 28.5982 63.7375 28.4439 63.5429C28.3005 63.3362 28.2289 63.1599 28.2289 63.0139C28.2289 62.868 28.2454 62.7403 28.2785 62.6309Z" fill="#112347"/>
<path d="M52.4558 62.7221V44.9742C52.4558 44.6459 52.5495 44.3784 52.7369 44.1717C52.9353 43.9528 53.1779 43.8433 53.4645 43.8433H57.1688C57.4555 43.8433 57.6925 43.9528 57.8799 44.1717C58.0784 44.3784 58.1776 44.6459 58.1776 44.9742V50.4646H63.1884C65.5366 50.4646 67.3557 50.9753 68.6456 51.9968C69.9355 53.0182 70.5805 54.7389 70.5805 57.1588C70.5805 59.5665 69.9355 61.2811 68.6456 62.3026C67.3557 63.324 65.5366 63.8348 63.1884 63.8348H53.4645C53.1779 63.8348 52.9353 63.7314 52.7369 63.5247C52.5495 63.3058 52.4558 63.0383 52.4558 62.7221ZM58.1776 59.6942H62.6757C63.3592 59.6942 63.8884 59.4753 64.2633 59.0376C64.6491 58.5998 64.8421 57.9735 64.8421 57.1588C64.8421 56.3319 64.6491 55.6996 64.2633 55.2618C63.8884 54.824 63.3592 54.6052 62.6757 54.6052H58.1776V59.6942Z" fill="#112347"/>
<path d="M73.4579 62.7221V44.9742C73.4579 44.6459 73.5516 44.3784 73.739 44.1717C73.9375 43.9528 74.18 43.8433 74.4667 43.8433H91.1361C91.4338 43.8433 91.6763 43.9528 91.8637 44.1717C92.0512 44.3784 92.1449 44.6459 92.1449 44.9742V62.7221C92.1449 63.0504 92.0512 63.318 91.8637 63.5247C91.6763 63.7314 91.4338 63.8348 91.1361 63.8348H87.4483C87.1507 63.8348 86.9026 63.7314 86.7042 63.5247C86.5167 63.3058 86.423 63.0383 86.423 62.7221V48.2575H79.1798V62.7221C79.1798 63.0504 79.0805 63.318 78.8821 63.5247C78.6947 63.7314 78.4576 63.8348 78.171 63.8348H74.4667C74.169 63.8348 73.9265 63.7314 73.739 63.5247C73.5516 63.318 73.4579 63.0504 73.4579 62.7221Z" fill="#112347"/>
<path d="M96.5437 62.1202V39.4109C96.5437 38.9124 96.6926 38.4989 96.9902 38.1706C97.2879 37.8423 97.6628 37.6781 98.1148 37.6781H101.025C101.455 37.6781 101.819 37.8423 102.117 38.1706C102.425 38.4989 102.58 38.9002 102.58 39.3745V57.633L111.989 39.4109C112.243 38.9367 112.59 38.5293 113.031 38.1888C113.472 37.8484 113.88 37.6781 114.255 37.6781H119.133C119.563 37.6781 119.927 37.8484 120.225 38.1888C120.523 38.5293 120.671 38.9367 120.671 39.4109V62.1202C120.671 62.5944 120.517 63.0018 120.208 63.3423C119.9 63.6706 119.53 63.8348 119.1 63.8348H116.19C115.76 63.8348 115.391 63.6706 115.082 63.3423C114.784 63.0018 114.635 62.5944 114.635 62.1202V45.1931L106.003 62.1202C105.749 62.5944 105.391 63.0018 104.928 63.3423C104.465 63.6706 104.019 63.8348 103.589 63.8348H98.1148C97.6848 63.8348 97.3155 63.6706 97.0068 63.3423C96.6981 63.0018 96.5437 62.5944 96.5437 62.1202Z" fill="#112347"/>
<path d="M123.731 58.7092C123.731 58.3809 123.824 58.1134 124.012 57.9067C124.21 57.6999 124.453 57.5966 124.74 57.5966H127.22C127.97 57.5966 128.554 58.01 128.973 58.8369C129.403 59.6516 130.219 60.059 131.421 60.059H134.778C136.376 60.059 137.175 59.3355 137.175 57.8884C137.175 56.4413 136.376 55.7239 134.778 55.7361H130.676C130.379 55.7361 130.131 55.6327 129.932 55.426C129.745 55.2071 129.651 54.9335 129.651 54.6052V52.7082C129.651 52.3798 129.745 52.1123 129.932 51.9056C130.131 51.6867 130.379 51.5773 130.676 51.5773H134.463C135.191 51.5773 135.737 51.4009 136.101 51.0483C136.475 50.6835 136.663 50.2031 136.663 49.6073C136.663 49.0114 136.475 48.5311 136.101 48.1663C135.737 47.8015 135.191 47.6191 134.463 47.6191H131.421C131.035 47.6191 130.638 47.7285 130.23 47.9474C129.822 48.1541 129.519 48.4582 129.32 48.8594C128.89 49.6863 128.301 50.0937 127.551 50.0815H125.087C124.789 50.0815 124.541 49.9782 124.343 49.7715C124.155 49.5647 124.062 49.2972 124.062 48.9689C124.062 47.3273 124.784 46.0018 126.228 44.9925C127.683 43.9832 129.436 43.4785 131.487 43.4785H134.811C137.137 43.4785 138.978 43.9528 140.334 44.9013C141.701 45.8376 142.385 47.2665 142.385 49.1878C142.385 51.1091 141.596 52.4954 140.02 53.3466C141.938 54.4167 142.897 56.1069 142.897 58.4174C142.897 60.436 142.247 61.9074 140.946 62.8315C139.656 63.7436 137.732 64.1996 135.174 64.1996H131.487C129.271 64.1996 127.424 63.701 125.947 62.7039C124.469 61.7067 123.731 60.3752 123.731 58.7092Z" fill="#112347"/>
<path d="M147.346 61.573C145.626 59.8219 144.766 57.2439 144.766 53.8391C144.766 50.422 145.626 47.8441 147.346 46.1052C149.066 44.3541 151.535 43.4785 154.754 43.4785C157.985 43.4785 160.46 44.3541 162.18 46.1052C163.899 47.8441 164.759 50.422 164.759 53.8391C164.759 57.2439 163.899 59.8219 162.18 61.573C160.46 63.324 157.985 64.1996 154.754 64.1996C151.535 64.1996 149.066 63.324 147.346 61.573ZM151.53 49.0966C150.846 50.0815 150.504 51.6563 150.504 53.8208C150.504 55.9853 150.846 57.5662 151.53 58.5633C152.213 59.5604 153.288 60.059 154.754 60.059C156.232 60.059 157.312 59.5604 157.996 58.5633C158.69 57.5662 159.038 55.9853 159.038 53.8208C159.038 51.6563 158.69 50.0815 157.996 49.0966C157.312 48.1116 156.232 47.6191 154.754 47.6191C153.288 47.6191 152.213 48.1116 151.53 49.0966Z" fill="#112347"/>
<path d="M166.165 62.6309L169.142 49.3702C169.98 45.6856 172.747 43.8433 177.443 43.8433H185.265C185.552 43.8433 185.789 43.9528 185.977 44.1717C186.175 44.3784 186.274 44.6459 186.274 44.9742V62.7221C186.274 63.0383 186.175 63.3058 185.977 63.5247C185.789 63.7314 185.552 63.8348 185.265 63.8348H181.561C181.274 63.8348 181.032 63.7314 180.833 63.5247C180.646 63.3058 180.552 63.0383 180.552 62.7221V48.2575H177.443C175.9 48.2575 174.924 49.1513 174.516 50.9388L171.92 62.485C171.821 62.8863 171.622 63.2146 171.325 63.47C171.038 63.7132 170.729 63.8348 170.399 63.8348H167.008C166.711 63.8348 166.485 63.7375 166.33 63.5429C166.187 63.3362 166.115 63.1599 166.115 63.0139C166.115 62.868 166.132 62.7403 166.165 62.6309Z" fill="#112347"/>
<path d="M192.376 60.7521C190.337 58.5998 189.317 55.274 189.317 50.7747C189.317 46.2632 190.337 42.9313 192.376 40.779C194.427 38.6144 197.497 37.5322 201.588 37.5322H205.275C207.778 37.5322 209.988 38.2496 211.907 39.6845C213.836 41.1195 214.801 43.0833 214.801 45.5762C214.801 46.2936 214.608 46.8104 214.222 47.1266C213.836 47.4306 213.461 47.5826 213.097 47.5826H211.129C210.115 47.5826 209.327 46.9138 208.765 45.5762C207.949 43.6549 206.593 42.6942 204.697 42.6942H201.753C199.339 42.6942 197.701 43.2657 196.841 44.4088C195.981 45.5519 195.552 47.6677 195.552 50.7564C195.552 53.8451 195.981 55.9671 196.841 57.1223C197.701 58.2654 199.339 58.8369 201.753 58.8369H205.044C206.94 58.8369 208.291 57.8763 209.095 55.9549C209.658 54.6052 210.451 53.9303 211.477 53.9303H213.445C213.963 53.9303 214.371 54.1431 214.668 54.5687C214.977 54.9943 215.131 55.4564 215.131 55.9549C215.131 58.4478 214.172 60.4117 212.254 61.8466C210.336 63.2693 208.125 63.9807 205.623 63.9807H201.588C197.497 63.9807 194.427 62.9045 192.376 60.7521Z" fill="#112347"/>
<path d="M215.991 47.1448V44.9742C215.991 44.6459 216.085 44.3784 216.273 44.1717C216.471 43.9528 216.719 43.8433 217.017 43.8433H233.306C233.603 43.8433 233.846 43.9528 234.033 44.1717C234.221 44.3784 234.315 44.6459 234.315 44.9742V47.1448C234.315 47.461 234.221 47.7285 234.033 47.9474C233.846 48.1541 233.603 48.2575 233.306 48.2575H228.03V62.7221C228.03 63.0383 227.931 63.3058 227.733 63.5247C227.545 63.7314 227.303 63.8348 227.005 63.8348H223.317C223.02 63.8348 222.772 63.7314 222.573 63.5247C222.386 63.3058 222.292 63.0383 222.292 62.7221V48.2575H217.017C216.719 48.2575 216.471 48.1541 216.273 47.9474C216.085 47.7285 215.991 47.461 215.991 47.1448Z" fill="#112347"/>
<path d="M236.712 68.8691V44.9742C236.712 44.6459 236.806 44.3784 236.994 44.1717C237.192 43.9528 237.435 43.8433 237.721 43.8433H240.913C241.199 43.8433 241.437 43.9528 241.624 44.1717C241.822 44.3784 241.922 44.6459 241.922 44.9742V45.5215C243.664 44.1595 245.687 43.4785 247.991 43.4785C250.295 43.4785 252.219 44.3784 253.762 46.1781C255.306 47.9657 256.077 50.5315 256.077 53.8755C256.077 57.2074 255.278 59.7611 253.68 61.5365C252.081 63.3119 249.926 64.1996 247.214 64.1996C245.813 64.1996 244.22 63.8895 242.434 63.2693V68.8691C242.434 69.1974 242.335 69.465 242.137 69.6717C241.949 69.8906 241.712 70 241.426 70H237.721C237.435 70 237.192 69.8906 236.994 69.6717C236.806 69.465 236.712 69.1974 236.712 68.8691ZM242.434 59.0558C243.856 59.5544 245.053 59.8036 246.023 59.8036C247.533 59.8036 248.603 59.3294 249.231 58.3809C249.87 57.4324 250.19 55.9185 250.19 53.8391C250.19 51.7597 249.887 50.2518 249.281 49.3155C248.685 48.367 247.787 47.8927 246.585 47.8927C245.394 47.8927 244.011 48.4399 242.434 49.5343V59.0558Z" fill="#112347"/>
<path d="M260.691 61.573C258.971 59.8219 258.111 57.2439 258.111 53.8391C258.111 50.422 258.971 47.8441 260.691 46.1052C262.411 44.3541 264.881 43.4785 268.1 43.4785C271.33 43.4785 273.805 44.3541 275.525 46.1052C277.245 47.8441 278.105 50.422 278.105 53.8391C278.105 57.2439 277.245 59.8219 275.525 61.573C273.805 63.324 271.33 64.1996 268.1 64.1996C264.881 64.1996 262.411 63.324 260.691 61.573ZM264.875 49.0966C264.192 50.0815 263.85 51.6563 263.85 53.8208C263.85 55.9853 264.192 57.5662 264.875 58.5633C265.559 59.5604 266.634 60.059 268.1 60.059C269.577 60.059 270.658 59.5604 271.341 58.5633C272.036 57.5662 272.383 55.9853 272.383 53.8208C272.383 51.6563 272.036 50.0815 271.341 49.0966C270.658 48.1116 269.577 47.6191 268.1 47.6191C266.634 47.6191 265.559 48.1116 264.875 49.0966Z" fill="#112347"/>
<path d="M281.164 62.7221V44.9742C281.164 44.6459 281.258 44.3784 281.445 44.1717C281.644 43.9528 281.886 43.8433 282.173 43.8433H285.629C285.927 43.8433 286.169 43.9528 286.357 44.1717C286.555 44.3784 286.655 44.6459 286.655 44.9742V56.9582L292.476 45.1567C292.652 44.7797 292.922 44.4696 293.286 44.2264C293.65 43.971 294.003 43.8433 294.344 43.8433H298.975C299.272 43.8433 299.515 43.9528 299.702 44.1717C299.901 44.3784 300 44.6459 300 44.9742V62.7221C300 63.0504 299.901 63.318 299.702 63.5247C299.515 63.7314 299.272 63.8348 298.975 63.8348H295.518C295.221 63.8348 294.978 63.7314 294.791 63.5247C294.603 63.3058 294.51 63.0383 294.51 62.7221V50.7564L288.689 62.5215C288.512 62.8741 288.242 63.1842 287.878 63.4517C287.514 63.7071 287.162 63.8348 286.82 63.8348H282.173C281.875 63.8348 281.633 63.7314 281.445 63.5247C281.258 63.318 281.164 63.0504 281.164 62.7221ZM285.017 36.9303C285.017 36.3101 285.326 36 285.943 36H287.184C287.724 36 288.11 36.3101 288.341 36.9303C288.705 37.9274 289.449 38.426 290.574 38.426C291.709 38.426 292.454 37.9274 292.806 36.9303C293.027 36.3101 293.413 36 293.964 36H295.221C295.827 36 296.13 36.3101 296.13 36.9303C296.13 38.353 295.618 39.5204 294.592 40.4324C293.567 41.3444 292.228 41.8004 290.574 41.8004C288.931 41.8004 287.592 41.3444 286.555 40.4324C285.53 39.5204 285.017 38.353 285.017 36.9303Z" fill="#112347"/>
<path d="M0.316882 2.49568V0.678175C0.316882 0.537114 0.364772 0.415947 0.460552 0.314673C0.559752 0.213399 0.676056 0.162762 0.809464 0.162762H1.76897C1.89896 0.162762 2.01184 0.213399 2.10762 0.314673C2.2034 0.415947 2.25129 0.537114 2.25129 0.678175V2.49568C2.25129 3.37098 2.66349 3.80863 3.48788 3.80863H5.4736V0.678175C5.4736 0.537114 5.52149 0.415947 5.61727 0.314673C5.71305 0.213399 5.82764 0.162762 5.96105 0.162762H6.91543C7.05568 0.162762 7.17198 0.213399 7.26434 0.314673C7.36012 0.415947 7.40801 0.537114 7.40801 0.678175V7.4328C7.40801 7.57386 7.35841 7.69502 7.25921 7.7963C7.16343 7.89395 7.04884 7.94278 6.91543 7.94278H5.96105C5.82764 7.94278 5.71305 7.89576 5.61727 7.80172C5.52149 7.70407 5.4736 7.58471 5.4736 7.44365V5.34402H3.48788C2.5164 5.34402 1.74503 5.10892 1.17377 4.63872C0.602511 4.16851 0.316882 3.45417 0.316882 2.49568Z" fill="#3396CE"/>
<path d="M8.27516 7.44365L9.56306 2.27867C9.91197 0.871681 11.0476 0.166379 12.9701 0.162762H15.7357C15.8623 0.162762 15.9666 0.213399 16.0487 0.314673C16.1342 0.415947 16.177 0.533497 16.177 0.667324V7.44365C16.177 7.58471 16.1291 7.70407 16.0333 7.80172C15.9375 7.89576 15.823 7.94278 15.6895 7.94278H14.7249C14.5847 7.94278 14.4684 7.89576 14.376 7.80172C14.2871 7.70407 14.2426 7.58109 14.2426 7.4328V6.0656H10.5944L10.2506 7.4328C10.2164 7.58109 10.1394 7.70407 10.0197 7.80172C9.89999 7.89576 9.77343 7.94278 9.64002 7.94278H8.6292C8.49579 7.94278 8.40001 7.903 8.34186 7.82342C8.28371 7.74023 8.25463 7.6679 8.25463 7.60641C8.25806 7.54492 8.2649 7.49067 8.27516 7.44365ZM10.9741 4.53021H14.2426V1.69815H12.7802C12.4518 1.69815 12.1645 1.79762 11.9182 1.99655C11.6753 2.19186 11.5111 2.4559 11.4256 2.78865L10.9741 4.53021Z" fill="#3396CE"/>
<path d="M18.173 7.02589C17.5401 6.38569 17.2237 5.39646 17.2237 4.0582C17.2237 2.71632 17.5401 1.72528 18.173 1.08508C18.8092 0.441266 19.7619 0.119359 21.031 0.119359H22.1752C22.9517 0.119359 23.6376 0.332758 24.2328 0.759556C24.8314 1.18635 25.1307 1.77049 25.1307 2.51196C25.1307 2.72536 25.0708 2.87908 24.9511 2.97312C24.8314 3.06354 24.7151 3.10875 24.6022 3.10875H23.9916C23.6769 3.10875 23.4323 2.90982 23.2579 2.51196C23.0047 1.94048 22.584 1.65475 21.9956 1.65475H21.0823C20.3332 1.65475 19.8252 1.82474 19.5584 2.16473C19.2915 2.50473 19.1581 3.13407 19.1581 4.05277C19.1581 4.97147 19.2915 5.60263 19.5584 5.94624C19.8252 6.28623 20.3332 6.45622 21.0823 6.45622H22.1034C22.6917 6.45622 23.1108 6.17049 23.3605 5.59901C23.5349 5.19753 23.7812 4.99679 24.0994 4.99679H24.7099C24.8707 4.99679 24.9973 5.06009 25.0896 5.18668C25.1854 5.31327 25.2333 5.45072 25.2333 5.59901C25.2333 6.34048 24.9357 6.92462 24.3405 7.35141C23.7453 7.7746 23.0595 7.98619 22.283 7.98619H21.031C19.7619 7.98619 18.8092 7.66609 18.173 7.02589Z" fill="#3396CE"/>
<path d="M25.5001 1.18816V0.678175C25.5001 0.529881 25.5463 0.406905 25.6387 0.309248C25.731 0.211591 25.8473 0.162762 25.9876 0.162762H32.4989C32.6391 0.162762 32.7555 0.211591 32.8478 0.309248C32.9402 0.406905 32.9864 0.529881 32.9864 0.678175V1.18816C32.9864 1.33646 32.9402 1.45943 32.8478 1.55709C32.7555 1.65113 32.6391 1.69815 32.4989 1.69815H30.2104V7.44365C30.2104 7.58471 30.1626 7.70407 30.0668 7.80172C29.9744 7.89576 29.8615 7.94278 29.7281 7.94278H28.7584C28.6249 7.94278 28.5104 7.89576 28.4146 7.80172C28.3222 7.70407 28.276 7.58471 28.276 7.44365V1.69815H25.9876C25.8473 1.69815 25.731 1.65113 25.6387 1.55709C25.5463 1.45943 25.5001 1.33646 25.5001 1.18816Z" fill="#3396CE"/>
<path d="M33.8278 7.4328V0.678175C33.8278 0.537114 33.8757 0.415947 33.9715 0.314673C34.0673 0.213399 34.1853 0.162762 34.3256 0.162762H35.2799C35.4133 0.162762 35.5262 0.213399 35.6186 0.314673C35.7144 0.415947 35.7623 0.537114 35.7623 0.678175V3.1196H39.2924V0.678175C39.2924 0.537114 39.3403 0.415947 39.4361 0.314673C39.5319 0.213399 39.6465 0.162762 39.7799 0.162762H40.7343C40.8745 0.162762 40.9908 0.213399 41.0832 0.314673C41.1789 0.415947 41.2268 0.537114 41.2268 0.678175V7.4328C41.2268 7.57386 41.1772 7.69502 41.078 7.7963C40.9823 7.89395 40.8677 7.94278 40.7343 7.94278H39.7799C39.6465 7.94278 39.5319 7.89576 39.4361 7.80172C39.3403 7.70407 39.2924 7.58471 39.2924 7.44365V4.65499H35.7623V7.44365C35.7623 7.58471 35.7144 7.70407 35.6186 7.80172C35.5262 7.89576 35.4133 7.94278 35.2799 7.94278H34.3256C34.1922 7.94278 34.0758 7.89395 33.9767 7.7963C33.8774 7.69502 33.8278 7.57386 33.8278 7.4328Z" fill="#3396CE"/>
<path d="M49.493 7.13982C48.7952 7.78725 47.7689 8.11097 46.4143 8.11097C45.0632 8.11097 44.0369 7.78725 43.3357 7.13982C42.6345 6.48878 42.2838 5.45976 42.2838 4.05277C42.2838 2.64579 42.6345 1.61858 43.3357 0.971146C44.0369 0.323715 45.0632 0 46.4143 0C47.7689 0 48.7952 0.323715 49.493 0.971146C50.1942 1.61858 50.5448 2.64579 50.5448 4.05277C50.5448 5.45976 50.1942 6.48878 49.493 7.13982ZM48.0922 2.11591C47.7467 1.68187 47.1874 1.46486 46.4143 1.46486C45.6447 1.46486 45.0854 1.68187 44.7365 2.11591C44.391 2.54994 44.2182 3.19737 44.2182 4.0582C44.2182 4.91541 44.391 5.56103 44.7365 5.99506C45.0854 6.42548 45.6447 6.64069 46.4143 6.64069C47.1874 6.64069 47.7467 6.42548 48.0922 5.99506C48.4377 5.56103 48.6104 4.91541 48.6104 4.0582C48.6104 3.19737 48.4377 2.54994 48.0922 2.11591Z" fill="#3396CE"/>
<path d="M51.6018 7.42194V0.667324C51.6018 0.526264 51.6497 0.406905 51.7455 0.309248C51.8413 0.211591 51.9559 0.162762 52.0893 0.162762H58.0054C58.1388 0.162762 58.2517 0.213399 58.3441 0.314673C58.4398 0.415947 58.4877 0.537114 58.4877 0.678175V1.18816C58.4877 1.32922 58.4398 1.45039 58.3441 1.55166C58.2517 1.64932 58.1388 1.69815 58.0054 1.69815H53.5363V3.27694H57.3846C57.518 3.27694 57.6308 3.32758 57.7232 3.42885C57.819 3.52651 57.8669 3.64587 57.8669 3.78693V4.29692C57.8669 4.43798 57.819 4.55914 57.7232 4.66042C57.6308 4.75807 57.518 4.8069 57.3846 4.8069H53.5363V6.4074H57.9951C58.1251 6.4074 58.2363 6.45622 58.3287 6.55388C58.421 6.65154 58.4672 6.7709 58.4672 6.91196V7.4328C58.4672 7.57386 58.4193 7.69502 58.3235 7.7963C58.2278 7.89395 58.1132 7.94278 57.9798 7.94278H52.0893C51.9559 7.94278 51.8413 7.89395 51.7455 7.7963C51.6497 7.69502 51.6018 7.57024 51.6018 7.42194Z" fill="#3396CE"/>
<path d="M63.1159 7.4328V0.678175C63.1159 0.537114 63.1621 0.415947 63.2545 0.314673C63.3468 0.213399 63.4597 0.162762 63.5931 0.162762H70.2533C70.3867 0.162762 70.4995 0.213399 70.5919 0.314673C70.6877 0.415947 70.7356 0.537114 70.7356 0.678175V7.4328C70.7356 7.57386 70.686 7.69502 70.5868 7.7963C70.491 7.89395 70.3764 7.94278 70.243 7.94278H69.2886C69.1552 7.94278 69.0406 7.89395 68.9448 7.7963C68.8491 7.69502 68.8012 7.57386 68.8012 7.4328V1.69815H65.0504V7.4328C65.0504 7.57386 65.0025 7.69502 64.9067 7.7963C64.8143 7.89395 64.7014 7.94278 64.568 7.94278H63.6034C63.47 7.94278 63.3554 7.89395 63.2596 7.7963C63.1638 7.69502 63.1159 7.57386 63.1159 7.4328Z" fill="#3396CE"/>
<path d="M72.2082 7.4328V0.678175C72.2082 0.537114 72.2544 0.415947 72.3467 0.314673C72.4391 0.213399 72.552 0.162762 72.6854 0.162762H76.6004C78.6699 0.162762 79.7047 1.17189 79.7047 3.19013C79.7047 5.20477 78.6699 6.21208 76.6004 6.21208H74.1426V7.4328C74.1426 7.57386 74.0947 7.69502 73.9989 7.7963C73.9066 7.89395 73.7937 7.94278 73.6603 7.94278H72.6956C72.5622 7.94278 72.4476 7.89395 72.3519 7.7963C72.2561 7.69502 72.2082 7.57386 72.2082 7.4328ZM74.1426 4.67669H76.0154C76.5901 4.67669 77.0263 4.57542 77.3239 4.37287C77.6215 4.16671 77.7703 3.77246 77.7703 3.19013C77.7703 2.60419 77.6215 2.20995 77.3239 2.0074C77.0263 1.80123 76.5901 1.69815 76.0154 1.69815H74.1426V4.67669Z" fill="#3396CE"/>
<path d="M87.4423 7.13982C86.7445 7.78725 85.7183 8.11097 84.3637 8.11097C83.0125 8.11097 81.9863 7.78725 81.285 7.13982C80.5838 6.48878 80.2332 5.45976 80.2332 4.05277C80.2332 2.64579 80.5838 1.61858 81.285 0.971146C81.9863 0.323715 83.0125 0 84.3637 0C85.7183 0 86.7445 0.323715 87.4423 0.971146C88.1436 1.61858 88.4942 2.64579 88.4942 4.05277C88.4942 5.45976 88.1436 6.48878 87.4423 7.13982ZM86.0415 2.11591C85.696 1.68187 85.1368 1.46486 84.3637 1.46486C83.594 1.46486 83.0347 1.68187 82.6858 2.11591C82.3403 2.54994 82.1676 3.19737 82.1676 4.0582C82.1676 4.91541 82.3403 5.56103 82.6858 5.99506C83.0347 6.42548 83.594 6.64069 84.3637 6.64069C85.1368 6.64069 85.696 6.42548 86.0415 5.99506C86.387 5.56103 86.5598 4.91541 86.5598 4.0582C86.5598 3.19737 86.387 2.54994 86.0415 2.11591Z" fill="#3396CE"/>
<path d="M89.5512 7.4328V0.678175C89.5512 0.529881 89.5974 0.406905 89.6897 0.309248C89.7821 0.211591 89.8984 0.162762 90.0386 0.162762H90.9417C91.0751 0.162762 91.188 0.211591 91.2803 0.309248C91.3761 0.406905 91.424 0.526264 91.424 0.667324V6.09815L94.3436 0.678175C94.4223 0.537114 94.53 0.415947 94.6668 0.314673C94.8037 0.213399 94.9302 0.162762 95.0465 0.162762H96.5602C96.6936 0.162762 96.8065 0.213399 96.8989 0.314673C96.9912 0.415947 97.0374 0.537114 97.0374 0.678175V7.4328C97.0374 7.57386 96.9895 7.69502 96.8937 7.7963C96.798 7.89395 96.6834 7.94278 96.5499 7.94278H95.6469C95.5135 7.94278 95.3989 7.89395 95.3031 7.7963C95.2107 7.69502 95.1646 7.57386 95.1646 7.4328V2.39803L92.4861 7.4328C92.4075 7.57386 92.2963 7.69502 92.1526 7.7963C92.009 7.89395 91.8704 7.94278 91.737 7.94278H90.0386C89.9052 7.94278 89.7906 7.89395 89.6948 7.7963C89.5991 7.69502 89.5512 7.57386 89.5512 7.4328Z" fill="#3396CE"/>
<path d="M98.038 5.82145C98.038 5.60805 98.0978 5.45433 98.2175 5.36029C98.3373 5.26625 98.4536 5.21923 98.5665 5.21923H99.1719C99.4866 5.21923 99.7329 5.41997 99.9108 5.82145C99.9963 6.01315 100.14 6.16687 100.342 6.28261C100.544 6.39835 100.768 6.45622 101.014 6.45622H102.62C102.993 6.45622 103.272 6.39293 103.456 6.26634C103.641 6.13974 103.733 5.92453 103.733 5.62071C103.733 5.31689 103.641 5.10168 103.456 4.97509C103.272 4.8485 102.993 4.7852 102.62 4.7852H101.296C101.163 4.7852 101.048 4.73637 100.952 4.63872C100.86 4.53744 100.814 4.41627 100.814 4.27521V3.83033C100.814 3.6965 100.858 3.57895 100.947 3.47768C101.04 3.37279 101.149 3.32034 101.276 3.32034H102.43C102.844 3.32034 103.147 3.25524 103.338 3.12503C103.533 2.99482 103.631 2.78323 103.631 2.49026C103.631 2.19367 103.533 1.98027 103.338 1.85006C103.147 1.71985 102.844 1.65475 102.43 1.65475H101.183C100.629 1.65475 100.246 1.87719 100.034 2.32207C99.88 2.66206 99.6491 2.83206 99.3412 2.83206H98.7306C98.5665 2.83206 98.4382 2.76876 98.3458 2.64217C98.2535 2.51558 98.2073 2.37813 98.2073 2.22984C98.2073 1.61496 98.5015 1.1104 99.0898 0.716153C99.6782 0.31829 100.316 0.119359 101.004 0.119359H102.579C104.57 0.119359 105.565 0.911467 105.565 2.49568C105.565 3.15396 105.329 3.67299 104.857 4.05277C105.398 4.40723 105.668 4.92988 105.668 5.62071C105.668 6.45622 105.42 7.06025 104.924 7.4328C104.431 7.80172 103.723 7.98619 102.8 7.98619H100.834C100.14 7.98619 99.5003 7.78545 98.9154 7.38397C98.3304 6.97887 98.038 6.45803 98.038 5.82145Z" fill="#3396CE"/>
<path d="M106.72 0.678175C106.72 0.537114 106.768 0.415947 106.863 0.314673C106.959 0.213399 107.074 0.162762 107.207 0.162762H111.379C112.402 0.162762 113.156 0.473818 113.642 1.09593C113.912 1.43954 114.047 1.879 114.047 2.4143C114.047 2.94599 113.816 3.41077 113.354 3.80863C114.011 4.18117 114.339 4.75988 114.339 5.54476C114.339 6.32963 114.076 6.92642 113.549 7.33514C113.026 7.74023 112.383 7.94278 111.62 7.94278H107.207C107.074 7.94278 106.959 7.89395 106.863 7.7963C106.768 7.69502 106.72 7.57386 106.72 7.4328V0.678175ZM108.654 6.47793H111.589C111.852 6.47793 112.054 6.39474 112.195 6.22836C112.335 6.06198 112.405 5.83411 112.405 5.54476C112.405 5.2554 112.335 5.02754 112.195 4.86116C112.054 4.69478 111.852 4.61159 111.589 4.61159H108.654V6.47793ZM108.654 3.18471H111.399C111.615 3.18471 111.787 3.1178 111.917 2.98397C112.047 2.84653 112.112 2.65664 112.112 2.4143C112.112 2.16835 112.047 1.97665 111.917 1.83921C111.787 1.70177 111.615 1.63304 111.399 1.63304H108.654V3.18471Z" fill="#3396CE"/>
<path d="M122.18 7.13982C121.482 7.78725 120.456 8.11097 119.101 8.11097C117.75 8.11097 116.724 7.78725 116.022 7.13982C115.321 6.48878 114.97 5.45976 114.97 4.05277C114.97 2.64579 115.321 1.61858 116.022 0.971146C116.724 0.323715 117.75 0 119.101 0C120.456 0 121.482 0.323715 122.18 0.971146C122.881 1.61858 123.231 2.64579 123.231 4.05277C123.231 5.45976 122.881 6.48878 122.18 7.13982ZM120.779 2.11591C120.433 1.68187 119.874 1.46486 119.101 1.46486C118.331 1.46486 117.772 1.68187 117.423 2.11591C117.078 2.54994 116.905 3.19737 116.905 4.0582C116.905 4.91541 117.078 5.56103 117.423 5.99506C117.772 6.42548 118.331 6.64069 119.101 6.64069C119.874 6.64069 120.433 6.42548 120.779 5.99506C121.124 5.56103 121.297 4.91541 121.297 4.0582C121.297 3.19737 121.124 2.54994 120.779 2.11591Z" fill="#3396CE"/>
<path d="M123.401 7.4328V6.91196C123.401 6.7709 123.447 6.65154 123.539 6.55388C123.635 6.45622 123.75 6.4074 123.883 6.4074H124.283L125.238 2.30037C125.57 0.875298 126.681 0.162762 128.573 0.162762H131.344C131.477 0.162762 131.59 0.211591 131.682 0.309248C131.778 0.406905 131.826 0.526264 131.826 0.667324V7.44365C131.826 7.58471 131.778 7.70407 131.682 7.80172C131.59 7.89576 131.477 7.94278 131.344 7.94278H123.883C123.75 7.94278 123.635 7.89395 123.539 7.7963C123.447 7.69502 123.401 7.57386 123.401 7.4328ZM126.259 6.4074H129.897V1.69815H128.363C128.038 1.69815 127.769 1.79219 127.557 1.98027C127.345 2.16835 127.199 2.43058 127.121 2.76695L126.259 6.4074Z" fill="#3396CE"/>
<path d="M133.827 7.02589C133.194 6.38569 132.878 5.39646 132.878 4.0582C132.878 2.71632 133.194 1.72528 133.827 1.08508C134.463 0.441266 135.416 0.119359 136.685 0.119359H137.829C138.606 0.119359 139.292 0.332758 139.887 0.759556C140.486 1.18635 140.785 1.77049 140.785 2.51196C140.785 2.72536 140.725 2.87908 140.605 2.97312C140.486 3.06354 140.369 3.10875 140.256 3.10875H139.646C139.331 3.10875 139.086 2.90982 138.912 2.51196C138.659 1.94048 138.238 1.65475 137.65 1.65475H136.736C135.987 1.65475 135.479 1.82474 135.212 2.16473C134.946 2.50473 134.812 3.13407 134.812 4.05277C134.812 4.97147 134.946 5.60263 135.212 5.94624C135.479 6.28623 135.987 6.45622 136.736 6.45622H137.757C138.346 6.45622 138.765 6.17049 139.015 5.59901C139.189 5.19753 139.435 4.99679 139.753 4.99679H140.364C140.525 4.99679 140.651 5.06009 140.744 5.18668C140.84 5.31327 140.887 5.45072 140.887 5.59901C140.887 6.34048 140.59 6.92462 139.995 7.35141C139.399 7.7746 138.714 7.98619 137.937 7.98619H136.685C135.416 7.98619 134.463 7.66609 133.827 7.02589Z" fill="#3396CE"/>
<path d="M141.154 1.18816V0.678175C141.154 0.529881 141.2 0.406905 141.293 0.309248C141.385 0.211591 141.501 0.162762 141.642 0.162762H148.153C148.293 0.162762 148.41 0.211591 148.502 0.309248C148.594 0.406905 148.64 0.529881 148.64 0.678175V1.18816C148.64 1.33646 148.594 1.45943 148.502 1.55709C148.41 1.65113 148.293 1.69815 148.153 1.69815H145.865V7.44365C145.865 7.58471 145.817 7.70407 145.721 7.80172C145.629 7.89576 145.516 7.94278 145.382 7.94278H144.412C144.279 7.94278 144.164 7.89576 144.069 7.80172C143.976 7.70407 143.93 7.58471 143.93 7.44365V1.69815H141.642C141.501 1.69815 141.385 1.65113 141.293 1.55709C141.2 1.45943 141.154 1.33646 141.154 1.18816Z" fill="#3396CE"/>
<path d="M149.482 0.678175C149.482 0.537114 149.53 0.415947 149.626 0.314673C149.721 0.213399 149.836 0.162762 149.969 0.162762H154.141C155.164 0.162762 155.918 0.473818 156.404 1.09593C156.674 1.43954 156.809 1.879 156.809 2.4143C156.809 2.94599 156.578 3.41077 156.116 3.80863C156.773 4.18117 157.102 4.75988 157.102 5.54476C157.102 6.32963 156.838 6.92642 156.311 7.33514C155.788 7.74023 155.145 7.94278 154.382 7.94278H149.969C149.836 7.94278 149.721 7.89395 149.626 7.7963C149.53 7.69502 149.482 7.57386 149.482 7.4328V0.678175ZM151.416 6.47793H154.351C154.615 6.47793 154.817 6.39474 154.957 6.22836C155.097 6.06198 155.167 5.83411 155.167 5.54476C155.167 5.2554 155.097 5.02754 154.957 4.86116C154.817 4.69478 154.615 4.61159 154.351 4.61159H151.416V6.47793ZM151.416 3.18471H154.161C154.377 3.18471 154.55 3.1178 154.68 2.98397C154.81 2.84653 154.875 2.65664 154.875 2.4143C154.875 2.16835 154.81 1.97665 154.68 1.83921C154.55 1.70177 154.377 1.63304 154.161 1.63304H151.416V3.18471Z" fill="#3396CE"/>
<path d="M158.153 7.42194V0.667324C158.153 0.526264 158.201 0.406905 158.297 0.309248C158.393 0.211591 158.508 0.162762 158.641 0.162762H164.557C164.69 0.162762 164.803 0.213399 164.896 0.314673C164.991 0.415947 165.039 0.537114 165.039 0.678175V1.18816C165.039 1.32922 164.991 1.45039 164.896 1.55166C164.803 1.64932 164.69 1.69815 164.557 1.69815H160.088V3.27694H163.936C164.07 3.27694 164.182 3.32758 164.275 3.42885C164.371 3.52651 164.418 3.64587 164.418 3.78693V4.29692C164.418 4.43798 164.371 4.55914 164.275 4.66042C164.182 4.75807 164.07 4.8069 163.936 4.8069H160.088V6.4074H164.547C164.677 6.4074 164.788 6.45622 164.88 6.55388C164.973 6.65154 165.019 6.7709 165.019 6.91196V7.4328C165.019 7.57386 164.971 7.69502 164.875 7.7963C164.779 7.89395 164.665 7.94278 164.531 7.94278H158.641C158.508 7.94278 158.393 7.89395 158.297 7.7963C158.201 7.69502 158.153 7.57024 158.153 7.42194Z" fill="#3396CE"/>
<path d="M165.983 7.4328V0.678175C165.983 0.537114 166.031 0.415947 166.127 0.314673C166.223 0.213399 166.341 0.162762 166.481 0.162762H167.436C167.569 0.162762 167.682 0.213399 167.774 0.314673C167.87 0.415947 167.918 0.537114 167.918 0.678175V3.1196H171.448V0.678175C171.448 0.537114 171.496 0.415947 171.592 0.314673C171.688 0.213399 171.802 0.162762 171.936 0.162762H172.89C173.03 0.162762 173.146 0.213399 173.239 0.314673C173.335 0.415947 173.382 0.537114 173.382 0.678175V7.4328C173.382 7.57386 173.333 7.69502 173.234 7.7963C173.138 7.89395 173.023 7.94278 172.89 7.94278H171.936C171.802 7.94278 171.688 7.89576 171.592 7.80172C171.496 7.70407 171.448 7.58471 171.448 7.44365V4.65499H167.918V7.44365C167.918 7.58471 167.87 7.70407 167.774 7.80172C167.682 7.89576 167.569 7.94278 167.436 7.94278H166.481C166.348 7.94278 166.231 7.89395 166.132 7.7963C166.033 7.69502 165.983 7.57386 165.983 7.4328Z" fill="#3396CE"/>
<path d="M174.86 7.4328V0.678175C174.86 0.537114 174.908 0.415947 175.004 0.314673C175.1 0.213399 175.218 0.162762 175.358 0.162762H176.312C176.446 0.162762 176.559 0.213399 176.651 0.314673C176.747 0.415947 176.795 0.537114 176.795 0.678175V3.1196H180.325V0.678175C180.325 0.537114 180.373 0.415947 180.468 0.314673C180.564 0.213399 180.679 0.162762 180.812 0.162762H181.767C181.907 0.162762 182.023 0.213399 182.116 0.314673C182.211 0.415947 182.259 0.537114 182.259 0.678175V7.4328C182.259 7.57386 182.21 7.69502 182.11 7.7963C182.015 7.89395 181.9 7.94278 181.767 7.94278H180.812C180.679 7.94278 180.564 7.89576 180.468 7.80172C180.373 7.70407 180.325 7.58471 180.325 7.44365V4.65499H176.795V7.44365C176.795 7.58471 176.747 7.70407 176.651 7.80172C176.559 7.89576 176.446 7.94278 176.312 7.94278H175.358C175.225 7.94278 175.108 7.89395 175.009 7.7963C174.91 7.69502 174.86 7.57386 174.86 7.4328Z" fill="#3396CE"/>
<path d="M190.525 7.13982C189.828 7.78725 188.801 8.11097 187.447 8.11097C186.096 8.11097 185.069 7.78725 184.368 7.13982C183.667 6.48878 183.316 5.45976 183.316 4.05277C183.316 2.64579 183.667 1.61858 184.368 0.971146C185.069 0.323715 186.096 0 187.447 0C188.801 0 189.828 0.323715 190.525 0.971146C191.227 1.61858 191.577 2.64579 191.577 4.05277C191.577 5.45976 191.227 6.48878 190.525 7.13982ZM189.125 2.11591C188.779 1.68187 188.22 1.46486 187.447 1.46486C186.677 1.46486 186.118 1.68187 185.769 2.11591C185.423 2.54994 185.251 3.19737 185.251 4.0582C185.251 4.91541 185.423 5.56103 185.769 5.99506C186.118 6.42548 186.677 6.64069 187.447 6.64069C188.22 6.64069 188.779 6.42548 189.125 5.99506C189.47 5.56103 189.643 4.91541 189.643 4.0582C189.643 3.19737 189.47 2.54994 189.125 2.11591Z" fill="#3396CE"/>
<path d="M192.111 4.85573V4.21011C192.111 4.11245 192.14 4.03288 192.198 3.97139C192.26 3.90629 192.335 3.87373 192.424 3.87373H196.293C196.385 3.87373 196.46 3.90629 196.518 3.97139C196.58 4.03288 196.611 4.11245 196.611 4.21011V4.85573C196.611 4.95339 196.58 5.03296 196.518 5.09445C196.46 5.15594 196.385 5.18668 196.293 5.18668H192.424C192.331 5.18668 192.256 5.15594 192.198 5.09445C192.14 5.03296 192.111 4.95339 192.111 4.85573Z" fill="#3396CE"/>
<path d="M198.078 7.02589C197.445 6.38569 197.129 5.39646 197.129 4.0582C197.129 2.71632 197.445 1.72528 198.078 1.08508C198.715 0.441266 199.667 0.119359 200.936 0.119359H202.08C202.857 0.119359 203.543 0.332758 204.138 0.759556C204.737 1.18635 205.036 1.77049 205.036 2.51196C205.036 2.72536 204.976 2.87908 204.856 2.97312C204.737 3.06354 204.62 3.10875 204.507 3.10875H203.897C203.582 3.10875 203.338 2.90982 203.163 2.51196C202.91 1.94048 202.489 1.65475 201.901 1.65475H200.988C200.238 1.65475 199.73 1.82474 199.464 2.16473C199.197 2.50473 199.063 3.13407 199.063 4.05277C199.063 4.97147 199.197 5.60263 199.464 5.94624C199.73 6.28623 200.238 6.45622 200.988 6.45622H202.009C202.597 6.45622 203.016 6.17049 203.266 5.59901C203.44 5.19753 203.687 4.99679 204.005 4.99679H204.615C204.776 4.99679 204.903 5.06009 204.995 5.18668C205.091 5.31327 205.139 5.45072 205.139 5.59901C205.139 6.34048 204.841 6.92462 204.246 7.35141C203.651 7.7746 202.965 7.98619 202.188 7.98619H200.936C199.667 7.98619 198.715 7.66609 198.078 7.02589Z" fill="#3396CE"/>
<path d="M205.405 1.18816V0.678175C205.405 0.529881 205.452 0.406905 205.544 0.309248C205.636 0.211591 205.753 0.162762 205.893 0.162762H212.404C212.544 0.162762 212.661 0.211591 212.753 0.309248C212.845 0.406905 212.892 0.529881 212.892 0.678175V1.18816C212.892 1.33646 212.845 1.45943 212.753 1.55709C212.661 1.65113 212.544 1.69815 212.404 1.69815H210.116V7.44365C210.116 7.58471 210.068 7.70407 209.972 7.80172C209.88 7.89576 209.767 7.94278 209.633 7.94278H208.664C208.53 7.94278 208.416 7.89576 208.32 7.80172C208.227 7.70407 208.181 7.58471 208.181 7.44365V1.69815H205.893C205.753 1.69815 205.636 1.65113 205.544 1.55709C205.452 1.45943 205.405 1.33646 205.405 1.18816Z" fill="#3396CE"/>
<path d="M213.733 7.4328V0.678175C213.733 0.537114 213.779 0.415947 213.872 0.314673C213.964 0.213399 214.077 0.162762 214.21 0.162762H218.125C220.195 0.162762 221.23 1.17189 221.23 3.19013C221.23 5.20477 220.195 6.21208 218.125 6.21208H215.668V7.4328C215.668 7.57386 215.62 7.69502 215.524 7.7963C215.432 7.89395 215.319 7.94278 215.185 7.94278H214.221C214.087 7.94278 213.973 7.89395 213.877 7.7963C213.781 7.69502 213.733 7.57386 213.733 7.4328ZM215.668 4.67669H217.54C218.115 4.67669 218.551 4.57542 218.849 4.37287C219.146 4.16671 219.295 3.77246 219.295 3.19013C219.295 2.60419 219.146 2.20995 218.849 2.0074C218.551 1.80123 218.115 1.69815 217.54 1.69815H215.668V4.67669Z" fill="#3396CE"/>
<path d="M228.967 7.13982C228.269 7.78725 227.243 8.11097 225.889 8.11097C224.537 8.11097 223.511 7.78725 222.81 7.13982C222.109 6.48878 221.758 5.45976 221.758 4.05277C221.758 2.64579 222.109 1.61858 222.81 0.971146C223.511 0.323715 224.537 0 225.889 0C227.243 0 228.269 0.323715 228.967 0.971146C229.668 1.61858 230.019 2.64579 230.019 4.05277C230.019 5.45976 229.668 6.48878 228.967 7.13982ZM227.566 2.11591C227.221 1.68187 226.662 1.46486 225.889 1.46486C225.119 1.46486 224.56 1.68187 224.211 2.11591C223.865 2.54994 223.693 3.19737 223.693 4.0582C223.693 4.91541 223.865 5.56103 224.211 5.99506C224.56 6.42548 225.119 6.64069 225.889 6.64069C226.662 6.64069 227.221 6.42548 227.566 5.99506C227.912 5.56103 228.085 4.91541 228.085 4.0582C228.085 3.19737 227.912 2.54994 227.566 2.11591Z" fill="#3396CE"/>
<path d="M231.076 7.4328V0.678175C231.076 0.529881 231.122 0.406905 231.215 0.309248C231.307 0.211591 231.423 0.162762 231.564 0.162762H232.467C232.6 0.162762 232.713 0.211591 232.805 0.309248C232.901 0.406905 232.949 0.526264 232.949 0.667324V6.09815L235.869 0.678175C235.947 0.537114 236.055 0.415947 236.192 0.314673C236.329 0.213399 236.455 0.162762 236.571 0.162762H238.085C238.219 0.162762 238.331 0.213399 238.424 0.314673C238.516 0.415947 238.562 0.537114 238.562 0.678175V7.4328C238.562 7.57386 238.514 7.69502 238.419 7.7963C238.323 7.89395 238.208 7.94278 238.075 7.94278H237.172C237.038 7.94278 236.924 7.89395 236.828 7.7963C236.736 7.69502 236.689 7.57386 236.689 7.4328V2.39803L234.011 7.4328C233.932 7.57386 233.821 7.69502 233.678 7.7963C233.534 7.89395 233.395 7.94278 233.262 7.94278H231.564C231.43 7.94278 231.316 7.89395 231.22 7.7963C231.124 7.69502 231.076 7.57386 231.076 7.4328Z" fill="#3396CE"/>
<path d="M239.404 1.18816V0.678175C239.404 0.529881 239.45 0.406905 239.542 0.309248C239.635 0.211591 239.751 0.162762 239.891 0.162762H246.403C246.543 0.162762 246.659 0.211591 246.752 0.309248C246.844 0.406905 246.89 0.529881 246.89 0.678175V1.18816C246.89 1.33646 246.844 1.45943 246.752 1.55709C246.659 1.65113 246.543 1.69815 246.403 1.69815H244.114V7.44365C244.114 7.58471 244.066 7.70407 243.97 7.80172C243.878 7.89576 243.765 7.94278 243.632 7.94278H242.662C242.529 7.94278 242.414 7.89576 242.318 7.80172C242.226 7.70407 242.18 7.58471 242.18 7.44365V1.69815H239.891C239.751 1.69815 239.635 1.65113 239.542 1.55709C239.45 1.45943 239.404 1.33646 239.404 1.18816Z" fill="#3396CE"/>
<path d="M247.732 7.42194V0.667324C247.732 0.526264 247.779 0.406905 247.875 0.309248C247.971 0.211591 248.086 0.162762 248.219 0.162762H254.135C254.269 0.162762 254.381 0.213399 254.474 0.314673C254.57 0.415947 254.617 0.537114 254.617 0.678175V1.18816C254.617 1.32922 254.57 1.45039 254.474 1.55166C254.381 1.64932 254.269 1.69815 254.135 1.69815H249.666V3.27694H253.514C253.648 3.27694 253.761 3.32758 253.853 3.42885C253.949 3.52651 253.997 3.64587 253.997 3.78693V4.29692C253.997 4.43798 253.949 4.55914 253.853 4.66042C253.761 4.75807 253.648 4.8069 253.514 4.8069H249.666V6.4074H254.125C254.255 6.4074 254.366 6.45622 254.458 6.55388C254.551 6.65154 254.597 6.7709 254.597 6.91196V7.4328C254.597 7.57386 254.549 7.69502 254.453 7.7963C254.357 7.89395 254.243 7.94278 254.109 7.94278H248.219C248.086 7.94278 247.971 7.89395 247.875 7.7963C247.779 7.69502 247.732 7.57024 247.732 7.42194Z" fill="#3396CE"/>
<path d="M254.956 7.48705L256.259 2.27867C256.608 0.871681 257.742 0.166379 259.661 0.162762H262.227C262.347 0.162762 262.447 0.215207 262.53 0.320098C262.615 0.42499 262.658 0.544348 262.658 0.678175V7.4328C262.658 7.57386 262.612 7.69502 262.519 7.7963C262.43 7.89395 262.319 7.94278 262.186 7.94278H261.206C261.072 7.94278 260.958 7.89395 260.862 7.7963C260.77 7.69502 260.723 7.57386 260.723 7.4328V1.69815H259.471C259.143 1.69815 258.856 1.79762 258.609 1.99655C258.367 2.19186 258.202 2.4559 258.117 2.78865L256.942 7.4328C256.908 7.58109 256.831 7.70407 256.711 7.80172C256.591 7.89576 256.465 7.94278 256.331 7.94278H255.29C255.17 7.94278 255.081 7.903 255.023 7.82342C254.968 7.74385 254.941 7.67694 254.941 7.62268C254.944 7.56843 254.949 7.52322 254.956 7.48705Z" fill="#3396CE"/>
<path d="M264.13 7.42194V0.678175C264.13 0.529881 264.177 0.406905 264.269 0.309248C264.361 0.211591 264.478 0.162762 264.618 0.162762H265.583C265.716 0.162762 265.829 0.213399 265.921 0.314673C266.017 0.415947 266.065 0.537114 266.065 0.678175V2.81036H268.6C269.407 2.81036 270.074 3.03641 270.601 3.48853C271.131 3.94065 271.396 4.56999 271.396 5.37657C271.396 6.18315 271.131 6.81249 270.601 7.26461C270.07 7.71672 269.403 7.94278 268.6 7.94278H264.592C264.466 7.94278 264.356 7.89215 264.264 7.79087C264.175 7.68598 264.13 7.563 264.13 7.42194ZM266.065 6.4074H268.6C269.174 6.4074 269.462 6.06379 269.462 5.37657C269.462 4.68574 269.174 4.34032 268.6 4.34032H266.065V6.4074Z" fill="#3396CE"/>
<path d="M272.34 7.4328V0.678175C272.34 0.537114 272.388 0.415947 272.484 0.314673C272.58 0.213399 272.698 0.162762 272.838 0.162762H273.792C273.926 0.162762 274.038 0.213399 274.131 0.314673C274.227 0.415947 274.275 0.537114 274.275 0.678175V3.1196H277.805V0.678175C277.805 0.537114 277.853 0.415947 277.948 0.314673C278.044 0.213399 278.159 0.162762 278.292 0.162762H279.247C279.387 0.162762 279.503 0.213399 279.595 0.314673C279.691 0.415947 279.739 0.537114 279.739 0.678175V7.4328C279.739 7.57386 279.69 7.69502 279.59 7.7963C279.495 7.89395 279.38 7.94278 279.247 7.94278H278.292C278.159 7.94278 278.044 7.89576 277.948 7.80172C277.853 7.70407 277.805 7.58471 277.805 7.44365V4.65499H274.275V7.44365C274.275 7.58471 274.227 7.70407 274.131 7.80172C274.038 7.89576 273.926 7.94278 273.792 7.94278H272.838C272.704 7.94278 272.588 7.89395 272.489 7.7963C272.39 7.69502 272.34 7.57386 272.34 7.4328Z" fill="#3396CE"/>
<path d="M288.005 7.13982C287.307 7.78725 286.281 8.11097 284.927 8.11097C283.575 8.11097 282.549 7.78725 281.848 7.13982C281.147 6.48878 280.796 5.45976 280.796 4.05277C280.796 2.64579 281.147 1.61858 281.848 0.971146C282.549 0.323715 283.575 0 284.927 0C286.281 0 287.307 0.323715 288.005 0.971146C288.706 1.61858 289.057 2.64579 289.057 4.05277C289.057 5.45976 288.706 6.48878 288.005 7.13982ZM286.604 2.11591C286.259 1.68187 285.7 1.46486 284.927 1.46486C284.157 1.46486 283.598 1.68187 283.249 2.11591C282.903 2.54994 282.731 3.19737 282.731 4.0582C282.731 4.91541 282.903 5.56103 283.249 5.99506C283.598 6.42548 284.157 6.64069 284.927 6.64069C285.7 6.64069 286.259 6.42548 286.604 5.99506C286.95 5.56103 287.123 4.91541 287.123 4.0582C287.123 3.19737 286.95 2.54994 286.604 2.11591Z" fill="#3396CE"/>
<path d="M290.114 7.42194V0.667324C290.114 0.526264 290.162 0.406905 290.258 0.309248C290.354 0.211591 290.468 0.162762 290.602 0.162762H296.518C296.651 0.162762 296.764 0.213399 296.856 0.314673C296.952 0.415947 297 0.537114 297 0.678175V1.18816C297 1.32922 296.952 1.45039 296.856 1.55166C296.764 1.64932 296.651 1.69815 296.518 1.69815H292.049V3.27694H295.897C296.03 3.27694 296.143 3.32758 296.235 3.42885C296.331 3.52651 296.379 3.64587 296.379 3.78693V4.29692C296.379 4.43798 296.331 4.55914 296.235 4.66042C296.143 4.75807 296.03 4.8069 295.897 4.8069H292.049V6.4074H296.507C296.637 6.4074 296.749 6.45622 296.841 6.55388C296.933 6.65154 296.979 6.7709 296.979 6.91196V7.4328C296.979 7.57386 296.932 7.69502 296.836 7.7963C296.74 7.89395 296.625 7.94278 296.492 7.94278H290.602C290.468 7.94278 290.354 7.89395 290.258 7.7963C290.162 7.69502 290.114 7.57024 290.114 7.42194Z" fill="#3396CE"/>
<path d="M2.18459 20.1988L3.04661 20.2964H3.15436C3.83508 20.2964 4.3003 19.8262 4.55001 18.8858H4.10874C3.24672 18.8858 2.57455 18.7013 2.09223 18.3324C1.60991 17.9599 1.196 17.3558 0.850512 16.5203L0.0449357 14.5672C-0.0132164 14.4225 -0.0149267 14.3013 0.0398046 14.2037C0.0979566 14.1024 0.193736 14.0518 0.327144 14.0518H1.4098C1.73819 14.0518 1.96566 14.2164 2.09223 14.5455L2.6823 16.0538C2.85676 16.4914 3.07568 16.8187 3.33908 17.0357C3.60247 17.2491 3.94967 17.3558 4.38068 17.3558H5.0118L5.94053 14.5563C5.98842 14.4008 6.07222 14.2778 6.19195 14.1874C6.31167 14.097 6.44166 14.0518 6.58191 14.0518H7.61838C7.75179 14.0518 7.84415 14.0916 7.89546 14.1711C7.94677 14.2471 7.97243 14.3158 7.97243 14.3773C7.97243 14.4352 7.96387 14.4912 7.94677 14.5455L6.27404 19.6074C6.04144 20.3199 5.69081 20.8697 5.22218 21.2567C4.75354 21.6401 4.09847 21.8318 3.25698 21.8318H2.02039C1.88699 21.8318 1.77239 21.783 1.67661 21.6853C1.58083 21.584 1.53294 21.4629 1.53294 21.3218V20.7087C1.53294 20.5677 1.57912 20.4483 1.67148 20.3507C1.76384 20.2494 1.88015 20.1988 2.02039 20.1988H2.18459Z" fill="#3396CE"/>
<path d="M8.81905 21.3218V14.5672C8.81905 14.4261 8.86694 14.305 8.96272 14.2037C9.0585 14.1024 9.17652 14.0518 9.31676 14.0518H10.2711C10.4045 14.0518 10.5174 14.1024 10.6098 14.2037C10.7056 14.305 10.7535 14.4261 10.7535 14.5672V17.0086H14.2836V14.5672C14.2836 14.4261 14.3315 14.305 14.4273 14.2037C14.5231 14.1024 14.6377 14.0518 14.7711 14.0518H15.7255C15.8657 14.0518 15.982 14.1024 16.0744 14.2037C16.1702 14.305 16.218 14.4261 16.218 14.5672V21.3218C16.218 21.4629 16.1684 21.584 16.0692 21.6853C15.9735 21.783 15.8589 21.8318 15.7255 21.8318H14.7711C14.6377 21.8318 14.5231 21.7848 14.4273 21.6907C14.3315 21.5931 14.2836 21.4737 14.2836 21.3327V18.544H10.7535V21.3327C10.7535 21.4737 10.7056 21.5931 10.6098 21.6907C10.5174 21.7848 10.4045 21.8318 10.2711 21.8318H9.31676C9.18336 21.8318 9.06705 21.783 8.96785 21.6853C8.86865 21.584 8.81905 21.4629 8.81905 21.3218Z" fill="#3396CE"/>
<path d="M17.6958 21.3218V14.5672C17.6958 14.4189 17.742 14.2959 17.8343 14.1983C17.9267 14.1006 18.043 14.0518 18.1832 14.0518H19.0863C19.2197 14.0518 19.3326 14.1006 19.425 14.1983C19.5207 14.2959 19.5686 14.4153 19.5686 14.5563V19.9872L22.4882 14.5672C22.5669 14.4261 22.6746 14.305 22.8115 14.2037C22.9483 14.1024 23.0749 14.0518 23.1912 14.0518H24.7048C24.8382 14.0518 24.9511 14.1024 25.0435 14.2037C25.1358 14.305 25.182 14.4261 25.182 14.5672V21.3218C25.182 21.4629 25.1341 21.584 25.0383 21.6853C24.9426 21.783 24.828 21.8318 24.6946 21.8318H23.7915C23.6581 21.8318 23.5435 21.783 23.4477 21.6853C23.3553 21.584 23.3092 21.4629 23.3092 21.3218V16.287L20.6308 21.3218C20.5521 21.4629 20.4409 21.584 20.2972 21.6853C20.1536 21.783 20.015 21.8318 19.8816 21.8318H18.1832C18.0498 21.8318 17.9352 21.783 17.8395 21.6853C17.7437 21.584 17.6958 21.4629 17.6958 21.3218Z" fill="#3396CE"/>
<path d="M26.0235 15.0772V14.5672C26.0235 14.4189 26.0697 14.2959 26.162 14.1983C26.2544 14.1006 26.3707 14.0518 26.511 14.0518H33.0223C33.1625 14.0518 33.2788 14.1006 33.3712 14.1983C33.4635 14.2959 33.5097 14.4189 33.5097 14.5672V15.0772C33.5097 15.2255 33.4635 15.3485 33.3712 15.4461C33.2788 15.5401 33.1625 15.5872 33.0223 15.5872H30.7338V21.3327C30.7338 21.4737 30.6859 21.5931 30.5901 21.6907C30.4978 21.7848 30.3849 21.8318 30.2515 21.8318H29.2817C29.1483 21.8318 29.0337 21.7848 28.9379 21.6907C28.8456 21.5931 28.7994 21.4737 28.7994 21.3327V15.5872H26.511C26.3707 15.5872 26.2544 15.5401 26.162 15.4461C26.0697 15.3485 26.0235 15.2255 26.0235 15.0772Z" fill="#3396CE"/>
<path d="M33.3353 21.3327L34.6232 16.1677C34.9721 14.7607 36.1077 14.0554 38.0302 14.0518H40.7958C40.9224 14.0518 41.0267 14.1024 41.1088 14.2037C41.1943 14.305 41.2371 14.4225 41.2371 14.5563V21.3327C41.2371 21.4737 41.1892 21.5931 41.0934 21.6907C40.9977 21.7848 40.8831 21.8318 40.7496 21.8318H39.785C39.6448 21.8318 39.5285 21.7848 39.4361 21.6907C39.3472 21.5931 39.3027 21.4701 39.3027 21.3218V19.9546H35.6545L35.3107 21.3218C35.2765 21.4701 35.1996 21.5931 35.0798 21.6907C34.9601 21.7848 34.8335 21.8318 34.7001 21.8318H33.6893C33.5559 21.8318 33.4601 21.792 33.402 21.7124C33.3438 21.6293 33.3147 21.5569 33.3147 21.4954C33.3182 21.4339 33.325 21.3797 33.3353 21.3327ZM36.0342 18.4192H39.3027V15.5872H37.8403C37.512 15.5872 37.2246 15.6866 36.9783 15.8856C36.7355 16.0809 36.5713 16.3449 36.4857 16.6777L36.0342 18.4192Z" fill="#3396CE"/>
<path d="M42.7046 21.3218V14.5672C42.7046 14.4261 42.7508 14.305 42.8431 14.2037C42.9355 14.1024 43.0484 14.0518 43.1818 14.0518H47.0968C49.1663 14.0518 50.2011 15.0609 50.2011 17.0792C50.2011 19.0938 49.1663 20.1011 47.0968 20.1011H44.639V21.3218C44.639 21.4629 44.5911 21.584 44.4953 21.6853C44.403 21.783 44.2901 21.8318 44.1567 21.8318H43.192C43.0586 21.8318 42.944 21.783 42.8483 21.6853C42.7525 21.584 42.7046 21.4629 42.7046 21.3218ZM44.639 18.5657H46.5118C47.0865 18.5657 47.5227 18.4644 47.8203 18.2619C48.1179 18.0557 48.2667 17.6615 48.2667 17.0792C48.2667 16.4932 48.1179 16.099 47.8203 15.8964C47.5227 15.6903 47.0865 15.5872 46.5118 15.5872H44.639V18.5657Z" fill="#3396CE"/>
<path d="M51.1503 21.3218V14.5672C51.1503 14.4261 51.1982 14.305 51.294 14.2037C51.3898 14.1024 51.5078 14.0518 51.648 14.0518H52.6024C52.7358 14.0518 52.8487 14.1024 52.9411 14.2037C53.0368 14.305 53.0847 14.4261 53.0847 14.5672V17.0086H56.6149V14.5672C56.6149 14.4261 56.6628 14.305 56.7586 14.2037C56.8543 14.1024 56.9689 14.0518 57.1023 14.0518H58.0567C58.197 14.0518 58.3133 14.1024 58.4056 14.2037C58.5014 14.305 58.5493 14.4261 58.5493 14.5672V21.3218C58.5493 21.4629 58.4997 21.584 58.4005 21.6853C58.3047 21.783 58.1901 21.8318 58.0567 21.8318H57.1023C56.9689 21.8318 56.8543 21.7848 56.7586 21.6907C56.6628 21.5931 56.6149 21.4737 56.6149 21.3327V18.544H53.0847V21.3327C53.0847 21.4737 53.0368 21.5931 52.9411 21.6907C52.8487 21.7848 52.7358 21.8318 52.6024 21.8318H51.648C51.5146 21.8318 51.3983 21.783 51.2991 21.6853C51.1999 21.584 51.1503 21.4629 51.1503 21.3218Z" fill="#3396CE"/>
<path d="M66.8154 21.0288C66.1176 21.6763 65.0914 22 63.7368 22C62.3856 22 61.3594 21.6763 60.6582 21.0288C59.9569 20.3778 59.6063 19.3488 59.6063 17.9418C59.6063 16.5348 59.9569 15.5076 60.6582 14.8602C61.3594 14.2127 62.3856 13.889 63.7368 13.889C65.0914 13.889 66.1176 14.2127 66.8154 14.8602C67.5167 15.5076 67.8673 16.5348 67.8673 17.9418C67.8673 19.3488 67.5167 20.3778 66.8154 21.0288ZM65.4147 16.0049C65.0692 15.5709 64.5099 15.3539 63.7368 15.3539C62.9671 15.3539 62.4079 15.5709 62.0589 16.0049C61.7135 16.439 61.5407 17.0864 61.5407 17.9472C61.5407 18.8044 61.7135 19.4501 62.0589 19.8841C62.4079 20.3145 62.9671 20.5297 63.7368 20.5297C64.5099 20.5297 65.0692 20.3145 65.4147 19.8841C65.7602 19.4501 65.9329 18.8044 65.9329 17.9472C65.9329 17.0864 65.7602 16.439 65.4147 16.0049Z" fill="#3396CE"/>
<path d="M68.9243 21.311V14.5563C68.9243 14.4153 68.9722 14.2959 69.068 14.1983C69.1638 14.1006 69.2784 14.0518 69.4118 14.0518H75.3279C75.4613 14.0518 75.5742 14.1024 75.6665 14.2037C75.7623 14.305 75.8102 14.4261 75.8102 14.5672V15.0772C75.8102 15.2182 75.7623 15.3394 75.6665 15.4407C75.5742 15.5383 75.4613 15.5872 75.3279 15.5872H70.8587V17.166H74.707C74.8404 17.166 74.9533 17.2166 75.0457 17.3179C75.1414 17.4155 75.1893 17.5349 75.1893 17.6759V18.1859C75.1893 18.327 75.1414 18.4482 75.0457 18.5494C74.9533 18.6471 74.8404 18.6959 74.707 18.6959H70.8587V20.2964H75.3176C75.4476 20.2964 75.5588 20.3452 75.6511 20.4429C75.7435 20.5406 75.7897 20.6599 75.7897 20.801V21.3218C75.7897 21.4629 75.7418 21.584 75.646 21.6853C75.5502 21.783 75.4356 21.8318 75.3022 21.8318H69.4118C69.2784 21.8318 69.1638 21.783 69.068 21.6853C68.9722 21.584 68.9243 21.4593 68.9243 21.311Z" fill="#3396CE"/>
<path d="M80.4384 21.3218V14.5672C80.4384 14.4261 80.4846 14.305 80.577 14.2037C80.6693 14.1024 80.7822 14.0518 80.9156 14.0518H87.5757C87.7091 14.0518 87.822 14.1024 87.9144 14.2037C88.0101 14.305 88.058 14.4261 88.058 14.5672V21.3218C88.058 21.4629 88.0084 21.584 87.9092 21.6853C87.8135 21.783 87.6989 21.8318 87.5655 21.8318H86.6111C86.4777 21.8318 86.3631 21.783 86.2673 21.6853C86.1715 21.584 86.1236 21.4629 86.1236 21.3218V15.5872H82.3728V21.3218C82.3728 21.4629 82.3249 21.584 82.2292 21.6853C82.1368 21.783 82.0239 21.8318 81.8905 21.8318H80.9259C80.7925 21.8318 80.6779 21.783 80.5821 21.6853C80.4863 21.584 80.4384 21.4629 80.4384 21.3218Z" fill="#3396CE"/>
<path d="M89.5307 21.3218V14.5672C89.5307 14.4261 89.5768 14.305 89.6692 14.2037C89.7616 14.1024 89.8744 14.0518 90.0078 14.0518H93.9228C95.9924 14.0518 97.0271 15.0609 97.0271 17.0792C97.0271 19.0938 95.9924 20.1011 93.9228 20.1011H91.4651V21.3218C91.4651 21.4629 91.4172 21.584 91.3214 21.6853C91.229 21.783 91.1161 21.8318 90.9827 21.8318H90.0181C89.8847 21.8318 89.7701 21.783 89.6743 21.6853C89.5785 21.584 89.5307 21.4629 89.5307 21.3218ZM91.4651 18.5657H93.3379C93.9126 18.5657 94.3487 18.4644 94.6463 18.2619C94.9439 18.0557 95.0927 17.6615 95.0927 17.0792C95.0927 16.4932 94.9439 16.099 94.6463 15.8964C94.3487 15.6903 93.9126 15.5872 93.3379 15.5872H91.4651V18.5657Z" fill="#3396CE"/>
<path d="M97.9764 21.311V14.5563C97.9764 14.4153 98.0243 14.2959 98.12 14.1983C98.2158 14.1006 98.3304 14.0518 98.4638 14.0518H104.38C104.513 14.0518 104.626 14.1024 104.719 14.2037C104.814 14.305 104.862 14.4261 104.862 14.5672V15.0772C104.862 15.2182 104.814 15.3394 104.719 15.4407C104.626 15.5383 104.513 15.5872 104.38 15.5872H99.9108V17.166H103.759C103.892 17.166 104.005 17.2166 104.098 17.3179C104.194 17.4155 104.241 17.5349 104.241 17.6759V18.1859C104.241 18.327 104.194 18.4482 104.098 18.5494C104.005 18.6471 103.892 18.6959 103.759 18.6959H99.9108V20.2964H104.37C104.5 20.2964 104.611 20.3452 104.703 20.4429C104.796 20.5406 104.842 20.6599 104.842 20.801V21.3218C104.842 21.4629 104.794 21.584 104.698 21.6853C104.602 21.783 104.488 21.8318 104.354 21.8318H98.4638C98.3304 21.8318 98.2158 21.783 98.12 21.6853C98.0243 21.584 97.9764 21.4593 97.9764 21.311Z" fill="#3396CE"/>
<path d="M105.073 21.3218V20.801C105.073 20.6599 105.119 20.5406 105.211 20.4429C105.307 20.3452 105.422 20.2964 105.555 20.2964H105.955L106.91 16.1894C107.241 14.7643 108.353 14.0518 110.245 14.0518H113.016C113.149 14.0518 113.262 14.1006 113.354 14.1983C113.45 14.2959 113.498 14.4153 113.498 14.5563V21.3327C113.498 21.4737 113.45 21.5931 113.354 21.6907C113.262 21.7848 113.149 21.8318 113.016 21.8318H105.555C105.422 21.8318 105.307 21.783 105.211 21.6853C105.119 21.584 105.073 21.4629 105.073 21.3218ZM107.931 20.2964H111.569V15.5872H110.034C109.709 15.5872 109.441 15.6812 109.229 15.8693C109.017 16.0574 108.871 16.3196 108.793 16.656L107.931 20.2964Z" fill="#3396CE"/>
<path d="M114.97 21.3218V14.5672C114.97 14.4261 115.017 14.305 115.109 14.2037C115.201 14.1024 115.314 14.0518 115.448 14.0518H122.108C122.241 14.0518 122.354 14.1024 122.446 14.2037C122.542 14.305 122.59 14.4261 122.59 14.5672V21.3218C122.59 21.4629 122.54 21.584 122.441 21.6853C122.346 21.783 122.231 21.8318 122.098 21.8318H121.143C121.01 21.8318 120.895 21.783 120.799 21.6853C120.704 21.584 120.656 21.4629 120.656 21.3218V15.5872H116.905V21.3218C116.905 21.4629 116.857 21.584 116.761 21.6853C116.669 21.783 116.556 21.8318 116.423 21.8318H115.458C115.325 21.8318 115.21 21.783 115.114 21.6853C115.018 21.584 114.97 21.4629 114.97 21.3218Z" fill="#3396CE"/>
<path d="M124.063 21.3218V14.5672C124.063 14.4261 124.109 14.305 124.201 14.2037C124.294 14.1024 124.406 14.0518 124.54 14.0518H128.455C130.524 14.0518 131.559 15.0609 131.559 17.0792C131.559 19.0938 130.524 20.1011 128.455 20.1011H125.997V21.3218C125.997 21.4629 125.949 21.584 125.853 21.6853C125.761 21.783 125.648 21.8318 125.515 21.8318H124.55C124.417 21.8318 124.302 21.783 124.206 21.6853C124.111 21.584 124.063 21.4629 124.063 21.3218ZM125.997 18.5657H127.87C128.445 18.5657 128.881 18.4644 129.178 18.2619C129.476 18.0557 129.625 17.6615 129.625 17.0792C129.625 16.4932 129.476 16.099 129.178 15.8964C128.881 15.6903 128.445 15.5872 127.87 15.5872H125.997V18.5657Z" fill="#3396CE"/>
<path d="M132.508 21.3218V14.5672C132.508 14.4189 132.555 14.2959 132.647 14.1983C132.739 14.1006 132.856 14.0518 132.996 14.0518H133.899C134.032 14.0518 134.145 14.1006 134.238 14.1983C134.333 14.2959 134.381 14.4153 134.381 14.5563V19.9872L137.301 14.5672C137.38 14.4261 137.487 14.305 137.624 14.2037C137.761 14.1024 137.887 14.0518 138.004 14.0518H139.517C139.651 14.0518 139.764 14.1024 139.856 14.2037C139.948 14.305 139.995 14.4261 139.995 14.5672V21.3218C139.995 21.4629 139.947 21.584 139.851 21.6853C139.755 21.783 139.641 21.8318 139.507 21.8318H138.604C138.471 21.8318 138.356 21.783 138.26 21.6853C138.168 21.584 138.122 21.4629 138.122 21.3218V16.287L135.443 21.3218C135.365 21.4629 135.254 21.584 135.11 21.6853C134.966 21.783 134.828 21.8318 134.694 21.8318H132.996C132.862 21.8318 132.748 21.783 132.652 21.6853C132.556 21.584 132.508 21.4629 132.508 21.3218Z" fill="#3396CE"/>
<path d="M141.057 21.5226C141.057 21.4647 141.079 21.3978 141.123 21.3218L142.54 18.8533C141.572 18.4084 141.089 17.6524 141.093 16.5854C141.093 15.7789 141.356 15.1549 141.883 14.7137C142.413 14.2724 143.077 14.0518 143.874 14.0518H147.891C148.018 14.0518 148.126 14.1006 148.215 14.1983C148.307 14.2959 148.353 14.4153 148.353 14.5563V21.3327C148.353 21.4737 148.305 21.5931 148.209 21.6907C148.117 21.7848 148.004 21.8318 147.871 21.8318H146.901C146.768 21.8318 146.653 21.783 146.557 21.6853C146.465 21.584 146.419 21.4629 146.419 21.3218V19.0757H144.582L143.35 21.3327C143.176 21.6654 142.928 21.8318 142.606 21.8318H141.313C141.142 21.8318 141.057 21.7287 141.057 21.5226ZM143.874 15.5872C143.306 15.5872 143.022 15.9055 143.022 16.542C143.022 17.1786 143.306 17.4969 143.874 17.4969H146.419V15.5872H143.874Z" fill="#3396CE"/>
<path d="M149.189 15.0772V14.5672C149.189 14.4189 149.236 14.2959 149.328 14.1983C149.42 14.1006 149.537 14.0518 149.677 14.0518H156.188C156.329 14.0518 156.445 14.1006 156.537 14.1983C156.63 14.2959 156.676 14.4189 156.676 14.5672V15.0772C156.676 15.2255 156.63 15.3485 156.537 15.4461C156.445 15.5401 156.329 15.5872 156.188 15.5872H153.9V21.3327C153.9 21.4737 153.852 21.5931 153.756 21.6907C153.664 21.7848 153.551 21.8318 153.417 21.8318H152.448C152.314 21.8318 152.2 21.7848 152.104 21.6907C152.012 21.5931 151.965 21.4737 151.965 21.3327V15.5872H149.677C149.537 15.5872 149.42 15.5401 149.328 15.4461C149.236 15.3485 149.189 15.2255 149.189 15.0772Z" fill="#3396CE"/>
<path d="M157.517 21.3218V14.5672C157.517 14.4189 157.563 14.2959 157.656 14.1983C157.748 14.1006 157.864 14.0518 158.005 14.0518H158.908C159.041 14.0518 159.154 14.1006 159.246 14.1983C159.342 14.2959 159.39 14.4153 159.39 14.5563V19.9872L162.31 14.5672C162.388 14.4261 162.496 14.305 162.633 14.2037C162.77 14.1024 162.896 14.0518 163.013 14.0518H164.526C164.66 14.0518 164.773 14.1024 164.865 14.2037C164.957 14.305 165.003 14.4261 165.003 14.5672V21.3218C165.003 21.4629 164.956 21.584 164.86 21.6853C164.764 21.783 164.649 21.8318 164.516 21.8318H163.613C163.48 21.8318 163.365 21.783 163.269 21.6853C163.177 21.584 163.131 21.4629 163.131 21.3218V16.287L160.452 21.3218C160.374 21.4629 160.262 21.584 160.119 21.6853C159.975 21.783 159.836 21.8318 159.703 21.8318H158.005C157.871 21.8318 157.757 21.783 157.661 21.6853C157.565 21.584 157.517 21.4629 157.517 21.3218Z" fill="#3396CE"/>
<path d="M166.476 21.311V14.5563C166.476 14.4153 166.524 14.2959 166.62 14.1983C166.715 14.1006 166.83 14.0518 166.964 14.0518H172.88C173.013 14.0518 173.126 14.1024 173.218 14.2037C173.314 14.305 173.362 14.4261 173.362 14.5672V15.0772C173.362 15.2182 173.314 15.3394 173.218 15.4407C173.126 15.5383 173.013 15.5872 172.88 15.5872H168.41V17.166H172.259C172.392 17.166 172.505 17.2166 172.597 17.3179C172.693 17.4155 172.741 17.5349 172.741 17.6759V18.1859C172.741 18.327 172.693 18.4482 172.597 18.5494C172.505 18.6471 172.392 18.6959 172.259 18.6959H168.41V20.2964H172.869C172.999 20.2964 173.111 20.3452 173.203 20.4429C173.295 20.5406 173.341 20.6599 173.341 20.801V21.3218C173.341 21.4629 173.294 21.584 173.198 21.6853C173.102 21.783 172.987 21.8318 172.854 21.8318H166.964C166.83 21.8318 166.715 21.783 166.62 21.6853C166.524 21.584 166.476 21.4593 166.476 21.311Z" fill="#3396CE"/>
</svg>
