<svg width="30" height="30" viewBox="0 0 30 30" fill="none" xmlns="http://www.w3.org/2000/svg">
<path d="M17.3652 11.6371H13.6181V7.8834C13.6181 7.36576 13.1989 6.94474 12.6813 6.94474C12.1636 6.94474 11.7445 7.36483 11.7445 7.8834V11.6371H7.9983C7.48066 11.6371 7.06155 11.8077 7.06155 12.3263C7.06155 12.8449 7.48071 13.5144 7.9983 13.5144H11.7454V17.2672C11.7454 17.7857 12.1646 18.2058 12.6822 18.2058C13.1998 18.2058 13.619 17.7857 13.619 17.2672V13.5144H17.3661C17.8838 13.5144 18.3029 13.0943 18.3029 12.5757C18.302 12.0572 17.8828 11.6371 17.3652 11.6371ZM29.715 28.3679L21.9694 20.7461C23.9976 18.5425 25.2439 15.6281 25.2439 12.4211C25.2439 5.56064 19.5932 0 12.6222 0C5.65118 0 0.000488281 5.56064 0.000488281 12.421C0.000488281 19.2814 5.65118 24.842 12.6222 24.842C15.6342 24.842 18.3967 23.8002 20.5666 22.0683L28.3421 29.7201C28.721 30.0933 29.3361 30.0933 29.715 29.7201C29.8051 29.632 29.8767 29.5269 29.9257 29.4108C29.9746 29.2947 29.9998 29.1699 29.9998 29.044C29.9998 28.918 29.9746 28.7933 29.9257 28.6771C29.8767 28.561 29.8051 28.4559 29.715 28.3679ZM12.6222 22.931C6.72396 22.931 1.94252 18.2255 1.94252 12.421C1.94252 6.61651 6.72396 1.91105 12.6222 1.91105C18.5205 1.91105 23.3019 6.61651 23.3019 12.421C23.3019 18.2255 18.5205 22.931 12.6222 22.931Z" fill="#112347"/>
</svg>
